<svg width="512" height="512" xmlns="http://www.w3.org/2000/svg">

 <g>
  <title>background</title>
  <rect fill="none" id="canvas_background" height="402" width="582" y="-1" x="-1"/>
 </g>
 <g>
  <title>Layer 1</title>
  <path id="svg_3" fill="#000000" d="m197.396,249.5c1.664,0 3.327,0.635 4.596,1.904l117.208,117.208c2.539,2.539 2.539,6.654 0,9.192c-2.538,2.538 -6.654,2.538 -9.192,0l-117.208,-117.208c-2.539,-2.539 -2.539,-6.654 0,-9.192c1.269,-1.269 2.932,-1.904 4.596,-1.904z"/>
  <path stroke="null" id="svg_5" fill="#000000" d="m314.604,132.292c1.664,0 3.327,0.634 4.596,1.904c2.539,2.539 2.539,6.654 0,9.192l-117.208,117.208c-2.538,2.539 -6.653,2.539 -9.192,0c-2.539,-2.539 -2.539,-6.654 0,-9.192l117.208,-117.208c1.269,-1.269 2.933,-1.904 4.596,-1.904z"/>
 </g>
</svg>