<?xml version="1.0" ?><!DOCTYPE svg  PUBLIC '-//W3C//DTD SVG 1.1//EN'  'http://www.w3.org/Graphics/SVG/1.1/DTD/svg11.dtd'><svg enable-background="new 0 0 512 512" height="512px" id="Layer_1" version="1.1" viewBox="0 0 512 512" width="512px" xml:space="preserve" xmlns="http://www.w3.org/2000/svg" xmlns:xlink="http://www.w3.org/1999/xlink"><g><g><path d="M314.604,262.5c-1.664,0-3.327-0.635-4.596-1.904L192.8,143.388c-2.539-2.539-2.539-6.654,0-9.192    c2.538-2.538,6.654-2.538,9.192,0L319.2,251.404c2.539,2.539,2.539,6.654,0,9.192C317.931,261.865,316.268,262.5,314.604,262.5z" fill="#404041"/></g><g><path d="M197.396,379.708c-1.664,0-3.327-0.634-4.596-1.904c-2.539-2.539-2.539-6.654,0-9.192l117.208-117.208    c2.538-2.539,6.653-2.539,9.192,0c2.539,2.539,2.539,6.654,0,9.192L201.992,377.804    C200.723,379.073,199.059,379.708,197.396,379.708z" fill="#404041"/></g></g></svg>